<?xml version="1.0" standalone="no"?>
<svg xmlns:xlink="http://www.w3.org/1999/xlink" id="wave" style="transform:rotate(180deg); transition: 0.3s" viewBox="0 0 1440 390" version="1.1" xmlns="http://www.w3.org/2000/svg"><defs><linearGradient id="sw-gradient-0" x1="0" x2="0" y1="1" y2="0"><stop stop-color="rgba(243, 62, 62, 1)" offset="0%"/><stop stop-color="rgba(255, 11, 193.276, 1)" offset="100%"/></linearGradient></defs><path style="transform:translate(0, 0px); opacity:1" fill="url(#sw-gradient-0)" d="M0,195L40,195C80,195,160,195,240,188.5C320,182,400,169,480,195C560,221,640,286,720,279.5C800,273,880,195,960,156C1040,117,1120,117,1200,97.5C1280,78,1360,39,1440,52C1520,65,1600,130,1680,169C1760,208,1840,221,1920,221C2000,221,2080,208,2160,188.5C2240,169,2320,143,2400,149.5C2480,156,2560,195,2640,182C2720,169,2800,104,2880,71.5C2960,39,3040,39,3120,65C3200,91,3280,143,3360,188.5C3440,234,3520,273,3600,279.5C3680,286,3760,260,3840,253.5C3920,247,4000,260,4080,253.5C4160,247,4240,221,4320,234C4400,247,4480,299,4560,325C4640,351,4720,351,4800,312C4880,273,4960,195,5040,195C5120,195,5200,273,5280,266.5C5360,260,5440,169,5520,143C5600,117,5680,156,5720,175.5L5760,195L5760,390L5720,390C5680,390,5600,390,5520,390C5440,390,5360,390,5280,390C5200,390,5120,390,5040,390C4960,390,4880,390,4800,390C4720,390,4640,390,4560,390C4480,390,4400,390,4320,390C4240,390,4160,390,4080,390C4000,390,3920,390,3840,390C3760,390,3680,390,3600,390C3520,390,3440,390,3360,390C3280,390,3200,390,3120,390C3040,390,2960,390,2880,390C2800,390,2720,390,2640,390C2560,390,2480,390,2400,390C2320,390,2240,390,2160,390C2080,390,2000,390,1920,390C1840,390,1760,390,1680,390C1600,390,1520,390,1440,390C1360,390,1280,390,1200,390C1120,390,1040,390,960,390C880,390,800,390,720,390C640,390,560,390,480,390C400,390,320,390,240,390C160,390,80,390,40,390L0,390Z"/></svg>